<svg width="56" height="56" viewBox="0 0 56 56" fill="none" xmlns="http://www.w3.org/2000/svg">
<rect opacity="0.26" width="56" height="56" rx="12" fill="#EB966A"/>
<path d="M39.6666 11.3334H16.3333C13.5766 11.3334 11.3333 13.5767 11.3333 16.3334V21.0517C11.3333 22.8067 11.9699 24.4017 12.9999 25.6284V41.3334C12.9999 41.7754 13.1755 42.1993 13.4881 42.5119C13.8006 42.8244 14.2246 43 14.6666 43H27.9999C28.4419 43 28.8659 42.8244 29.1784 42.5119C29.491 42.1993 29.6666 41.7754 29.6666 41.3334V33H36.3333V41.3334C36.3333 41.7754 36.5088 42.1993 36.8214 42.5119C37.134 42.8244 37.5579 43 37.9999 43H41.3333C41.7753 43 42.1992 42.8244 42.5118 42.5119C42.8243 42.1993 42.9999 41.7754 42.9999 41.3334V25.6267C44.0299 24.4017 44.6666 22.8067 44.6666 21.05V16.3334C44.6666 13.5767 42.4233 11.3334 39.6666 11.3334ZM41.3333 16.3334V21.0517C41.3333 22.9517 39.9183 24.5717 38.1816 24.6634L37.9999 24.6667C36.1616 24.6667 34.6666 23.1717 34.6666 21.3334V14.6667H39.6666C40.5866 14.6667 41.3333 15.415 41.3333 16.3334ZM24.6666 21.3334V14.6667H31.3333V21.3334C31.3333 23.1717 29.8383 24.6667 27.9999 24.6667C26.1616 24.6667 24.6666 23.1717 24.6666 21.3334ZM14.6666 16.3334C14.6666 15.415 15.4133 14.6667 16.3333 14.6667H21.3333V21.3334C21.3333 23.1717 19.8383 24.6667 17.9999 24.6667L17.8183 24.6617C16.0816 24.5717 14.6666 22.9517 14.6666 21.0517V16.3334ZM24.6666 34.6667H17.9999V29.6667H24.6666V34.6667Z" fill="url(#paint0_linear)"/>
<defs>
<linearGradient id="paint0_linear" x1="27.9999" y1="11.3334" x2="27.9999" y2="43" gradientUnits="userSpaceOnUse">
<stop stop-color="#EA9769"/>
<stop offset="1" stop-color="#EA6969"/>
</linearGradient>
</defs>
</svg>
